<mxfile host="app.diagrams.net" agent="Mozilla/5.0 (Macintosh; Intel Mac OS X 10_15_7) AppleWebKit/537.36 (KHTML, like Gecko) Chrome/127.0.0.0 Safari/537.36" version="24.7.17">
  <diagram name="第 1 页" id="kcZdlDMOoqQzpaW8ADvZ">
    <mxGraphModel dx="1084" dy="919" grid="1" gridSize="10" guides="1" tooltips="1" connect="1" arrows="1" fold="1" page="1" pageScale="1" pageWidth="827" pageHeight="1169" math="0" shadow="0">
      <root>
        <mxCell id="0" />
        <mxCell id="1" parent="0" />
        <mxCell id="7ZEEupnRSqc8lsoxQDyO-1" value="项目经理" style="whiteSpace=wrap;strokeWidth=2;" vertex="1" parent="1">
          <mxGeometry x="367" y="40" width="124" height="49" as="geometry" />
        </mxCell>
        <mxCell id="7ZEEupnRSqc8lsoxQDyO-2" value="架构师" style="whiteSpace=wrap;strokeWidth=2;" vertex="1" parent="1">
          <mxGeometry x="375" y="139" width="108" height="49" as="geometry" />
        </mxCell>
        <mxCell id="7ZEEupnRSqc8lsoxQDyO-3" value="前端开发" style="whiteSpace=wrap;strokeWidth=2;" vertex="1" parent="1">
          <mxGeometry x="280" y="237" width="124" height="49" as="geometry" />
        </mxCell>
        <mxCell id="7ZEEupnRSqc8lsoxQDyO-4" value="后端开发" style="whiteSpace=wrap;strokeWidth=2;" vertex="1" parent="1">
          <mxGeometry x="454" y="237" width="124" height="49" as="geometry" />
        </mxCell>
        <mxCell id="7ZEEupnRSqc8lsoxQDyO-5" value="测试人员" style="whiteSpace=wrap;strokeWidth=2;" vertex="1" parent="1">
          <mxGeometry x="454" y="336" width="124" height="49" as="geometry" />
        </mxCell>
        <mxCell id="7ZEEupnRSqc8lsoxQDyO-6" value="运维人员" style="whiteSpace=wrap;strokeWidth=2;" vertex="1" parent="1">
          <mxGeometry x="454" y="434" width="124" height="49" as="geometry" />
        </mxCell>
        <mxCell id="7ZEEupnRSqc8lsoxQDyO-7" value="" style="curved=1;startArrow=none;endArrow=block;exitX=0.5;exitY=0.99;entryX=0.5;entryY=-0.01;rounded=0;" edge="1" parent="1" source="7ZEEupnRSqc8lsoxQDyO-1" target="7ZEEupnRSqc8lsoxQDyO-2">
          <mxGeometry relative="1" as="geometry">
            <Array as="points" />
          </mxGeometry>
        </mxCell>
        <mxCell id="7ZEEupnRSqc8lsoxQDyO-8" value="" style="curved=1;startArrow=none;endArrow=block;exitX=0.1;exitY=0.98;entryX=0.5;entryY=0;rounded=0;" edge="1" parent="1" source="7ZEEupnRSqc8lsoxQDyO-2" target="7ZEEupnRSqc8lsoxQDyO-3">
          <mxGeometry relative="1" as="geometry">
            <Array as="points">
              <mxPoint x="342" y="212" />
            </Array>
          </mxGeometry>
        </mxCell>
        <mxCell id="7ZEEupnRSqc8lsoxQDyO-9" value="" style="curved=1;startArrow=none;endArrow=block;exitX=0.9;exitY=0.98;entryX=0.5;entryY=0;rounded=0;" edge="1" parent="1" source="7ZEEupnRSqc8lsoxQDyO-2" target="7ZEEupnRSqc8lsoxQDyO-4">
          <mxGeometry relative="1" as="geometry">
            <Array as="points">
              <mxPoint x="516" y="212" />
            </Array>
          </mxGeometry>
        </mxCell>
        <mxCell id="7ZEEupnRSqc8lsoxQDyO-10" value="" style="curved=1;startArrow=none;endArrow=block;exitX=0.5;exitY=0.99;entryX=0.5;entryY=-0.01;rounded=0;" edge="1" parent="1" source="7ZEEupnRSqc8lsoxQDyO-4" target="7ZEEupnRSqc8lsoxQDyO-5">
          <mxGeometry relative="1" as="geometry">
            <Array as="points" />
          </mxGeometry>
        </mxCell>
        <mxCell id="7ZEEupnRSqc8lsoxQDyO-11" value="" style="curved=1;startArrow=none;endArrow=block;exitX=0.5;exitY=0.98;entryX=0.5;entryY=0;rounded=0;" edge="1" parent="1" source="7ZEEupnRSqc8lsoxQDyO-5" target="7ZEEupnRSqc8lsoxQDyO-6">
          <mxGeometry relative="1" as="geometry">
            <Array as="points" />
          </mxGeometry>
        </mxCell>
      </root>
    </mxGraphModel>
  </diagram>
</mxfile>
